{
	"asset":{
		"generator":"Khronos glTF Blender I/O v3.6.27",
		"version":"2.0"
	},
	"scene":0,
	"scenes":[
		{
			"name":"Scene",
			"nodes":[
				0,
				1,
				2,
				3,
				4
			]
		}
	],
	"nodes":[
		{
			"mesh":0,
			"name":"370z",
			"rotation":[
				0.70710688829422,
				0,
				0,
				0.7071066498756409
			]
		},
		{
			"mesh":1,
			"name":"FL",
			"rotation":[
				0.70710688829422,
				0,
				0,
				0.7071066498756409
			],
			"translation":[
				0.7323774099349976,
				0.3396472930908203,
				1.2730517387390137
			]
		},
		{
			"mesh":2,
			"name":"RL",
			"rotation":[
				0.70710688829422,
				0,
				0,
				0.7071066498756409
			],
			"translation":[
				0.7481493353843689,
				0.3408060371875763,
				-1.2735533714294434
			]
		},
		{
			"mesh":3,
			"name":"RR",
			"rotation":[
				0.70710688829422,
				0,
				0,
				0.7071066498756409
			],
			"translation":[
				-0.7481573224067688,
				0.34090569615364075,
				-1.2732566595077515
			]
		},
		{
			"mesh":4,
			"name":"FR",
			"rotation":[
				0.70710688829422,
				0,
				0,
				0.7071066498756409
			],
			"translation":[
				-0.7323817014694214,
				0.33966487646102905,
				1.2730507850646973
			]
		}
	],
	"materials":[
		{
			"doubleSided":true,
			"name":"Body",
			"pbrMetallicRoughness":{
				"baseColorFactor":[
					0,
					0,
					0,
					1
				],
				"metallicFactor":0,
				"roughnessFactor":0.5
			}
		},
		{
			"doubleSided":true,
			"name":"Headlights",
			"pbrMetallicRoughness":{
				"baseColorFactor":[
					0.800000011920929,
					0.800000011920929,
					0.800000011920929,
					1
				],
				"roughnessFactor":0
			}
		},
		{
			"doubleSided":true,
			"name":"Windows",
			"pbrMetallicRoughness":{
				"baseColorFactor":[
					0,
					0,
					0,
					1
				],
				"metallicFactor":0.4330708384513855,
				"roughnessFactor":0.05511811003088951
			}
		},
		{
			"doubleSided":true,
			"name":"Tires",
			"pbrMetallicRoughness":{
				"baseColorFactor":[
					0,
					0,
					0,
					1
				],
				"metallicFactor":0,
				"roughnessFactor":0.5
			}
		},
		{
			"doubleSided":true,
			"name":"Underbody",
			"pbrMetallicRoughness":{
				"baseColorFactor":[
					0,
					0,
					0,
					1
				],
				"metallicFactor":0,
				"roughnessFactor":0.5
			}
		},
		{
			"doubleSided":true,
			"name":"Logo",
			"pbrMetallicRoughness":{
				"baseColorFactor":[
					0.2956905663013458,
					0.2956905663013458,
					0.2956905663013458,
					1
				],
				"metallicFactor":0,
				"roughnessFactor":0.5
			}
		},
		{
			"doubleSided":true,
			"name":"Brakes",
			"pbrMetallicRoughness":{
				"baseColorFactor":[
					0.800000011920929,
					0.800000011920929,
					0.800000011920929,
					1
				],
				"metallicFactor":0.8110235929489136,
				"roughnessFactor":0.31889763474464417
			}
		},
		{
			"doubleSided":true,
			"name":"Rearlights",
			"pbrMetallicRoughness":{
				"baseColorFactor":[
					0.8000000715255737,
					0,
					0,
					1
				],
				"metallicFactor":0.28346458077430725,
				"roughnessFactor":0.23228347301483154
			}
		},
		{
			"doubleSided":true,
			"name":"Grille",
			"pbrMetallicRoughness":{
				"baseColorFactor":[
					0.013410097919404507,
					0.013410097919404507,
					0.013410097919404507,
					1
				],
				"metallicFactor":0,
				"roughnessFactor":0.5
			}
		},
		{
			"doubleSided":true,
			"name":"Rims",
			"pbrMetallicRoughness":{
				"baseColorFactor":[
					0.0010313000530004501,
					0.0010313000530004501,
					0.0010313000530004501,
					1
				],
				"metallicFactor":0.7716535329818726,
				"roughnessFactor":0.14173229038715363
			}
		}
	],
	"meshes":[
		{
			"name":"370z",
			"primitives":[
				{
					"attributes":{
						"POSITION":0,
						"NORMAL":1
					},
					"indices":2,
					"material":0
				},
				{
					"attributes":{
						"POSITION":3,
						"NORMAL":4
					},
					"indices":5,
					"material":1
				},
				{
					"attributes":{
						"POSITION":6,
						"NORMAL":7
					},
					"indices":8,
					"material":2
				},
				{
					"attributes":{
						"POSITION":9,
						"NORMAL":10
					},
					"indices":11,
					"material":3
				},
				{
					"attributes":{
						"POSITION":12,
						"NORMAL":13
					},
					"indices":14,
					"material":4
				},
				{
					"attributes":{
						"POSITION":15,
						"NORMAL":16
					},
					"indices":17,
					"material":5
				},
				{
					"attributes":{
						"POSITION":18,
						"NORMAL":19
					},
					"indices":20,
					"material":6
				},
				{
					"attributes":{
						"POSITION":21,
						"NORMAL":22
					},
					"indices":23,
					"material":7
				},
				{
					"attributes":{
						"POSITION":24,
						"NORMAL":25
					},
					"indices":26,
					"material":8
				}
			]
		},
		{
			"name":"370z.001",
			"primitives":[
				{
					"attributes":{
						"POSITION":27,
						"NORMAL":28
					},
					"indices":29,
					"material":0
				},
				{
					"attributes":{
						"POSITION":30,
						"NORMAL":31
					},
					"indices":32,
					"material":3
				},
				{
					"attributes":{
						"POSITION":33,
						"NORMAL":34
					},
					"indices":35,
					"material":9
				},
				{
					"attributes":{
						"POSITION":36,
						"NORMAL":37
					},
					"indices":38,
					"material":6
				}
			]
		},
		{
			"name":"370z.002",
			"primitives":[
				{
					"attributes":{
						"POSITION":39,
						"NORMAL":40
					},
					"indices":29,
					"material":0
				},
				{
					"attributes":{
						"POSITION":41,
						"NORMAL":42
					},
					"indices":32,
					"material":3
				},
				{
					"attributes":{
						"POSITION":43,
						"NORMAL":44
					},
					"indices":45,
					"material":9
				},
				{
					"attributes":{
						"POSITION":46,
						"NORMAL":47
					},
					"indices":48,
					"material":6
				}
			]
		},
		{
			"name":"370z.003",
			"primitives":[
				{
					"attributes":{
						"POSITION":49,
						"NORMAL":50
					},
					"indices":51,
					"material":0
				},
				{
					"attributes":{
						"POSITION":52,
						"NORMAL":53
					},
					"indices":54,
					"material":3
				},
				{
					"attributes":{
						"POSITION":55,
						"NORMAL":56
					},
					"indices":57,
					"material":9
				},
				{
					"attributes":{
						"POSITION":58,
						"NORMAL":59
					},
					"indices":60,
					"material":6
				}
			]
		},
		{
			"name":"370z.004",
			"primitives":[
				{
					"attributes":{
						"POSITION":61,
						"NORMAL":62
					},
					"indices":51,
					"material":0
				},
				{
					"attributes":{
						"POSITION":63,
						"NORMAL":64
					},
					"indices":54,
					"material":3
				},
				{
					"attributes":{
						"POSITION":65,
						"NORMAL":66
					},
					"indices":67,
					"material":9
				},
				{
					"attributes":{
						"POSITION":68,
						"NORMAL":69
					},
					"indices":70,
					"material":6
				}
			]
		}
	],
	"accessors":[
		{
			"bufferView":0,
			"componentType":5126,
			"count":11888,
			"max":[
				1.0153000354766846,
				2.13100004196167,
				-0.15189999341964722
			],
			"min":[
				-1.0153000354766846,
				-2.119999885559082,
				-1.2869000434875488
			],
			"type":"VEC3"
		},
		{
			"bufferView":1,
			"componentType":5126,
			"count":11888,
			"type":"VEC3"
		},
		{
			"bufferView":2,
			"componentType":5123,
			"count":55221,
			"type":"SCALAR"
		},
		{
			"bufferView":3,
			"componentType":5126,
			"count":126,
			"max":[
				0.7696999907493591,
				1.9257999658584595,
				-0.6424999833106995
			],
			"min":[
				-0.769599974155426,
				1.3839000463485718,
				-0.8636000156402588
			],
			"type":"VEC3"
		},
		{
			"bufferView":4,
			"componentType":5126,
			"count":126,
			"type":"VEC3"
		},
		{
			"bufferView":5,
			"componentType":5123,
			"count":540,
			"type":"SCALAR"
		},
		{
			"bufferView":6,
			"componentType":5126,
			"count":251,
			"max":[
				0.7664999961853027,
				0.6614999771118164,
				-0.9077000021934509
			],
			"min":[
				-0.7663999795913696,
				-1.5744999647140503,
				-1.2209999561309814
			],
			"type":"VEC3"
		},
		{
			"bufferView":7,
			"componentType":5126,
			"count":251,
			"type":"VEC3"
		},
		{
			"bufferView":8,
			"componentType":5123,
			"count":1014,
			"type":"SCALAR"
		},
		{
			"bufferView":9,
			"componentType":5126,
			"count":32,
			"max":[
				0.22169999778270721,
				-2.071500062942505,
				-0.5418000221252441
			],
			"min":[
				-0.20739999413490295,
				-2.0836000442504883,
				-0.6557000279426575
			],
			"type":"VEC3"
		},
		{
			"bufferView":10,
			"componentType":5126,
			"count":32,
			"type":"VEC3"
		},
		{
			"bufferView":11,
			"componentType":5123,
			"count":114,
			"type":"SCALAR"
		},
		{
			"bufferView":12,
			"componentType":5126,
			"count":2177,
			"max":[
				0.9132000207901001,
				2.0696001052856445,
				-0.14560000598430634
			],
			"min":[
				-0.913100004196167,
				-2.033400058746338,
				-1.2446000576019287
			],
			"type":"VEC3"
		},
		{
			"bufferView":13,
			"componentType":5126,
			"count":2177,
			"type":"VEC3"
		},
		{
			"bufferView":14,
			"componentType":5123,
			"count":6228,
			"type":"SCALAR"
		},
		{
			"bufferView":15,
			"componentType":5126,
			"count":124,
			"max":[
				0.051500000059604645,
				2.049799919128418,
				-0.6104000210762024
			],
			"min":[
				-0.051500000059604645,
				1.9839999675750732,
				-0.6740000247955322
			],
			"type":"VEC3"
		},
		{
			"bufferView":16,
			"componentType":5126,
			"count":124,
			"type":"VEC3"
		},
		{
			"bufferView":17,
			"componentType":5123,
			"count":354,
			"type":"SCALAR"
		},
		{
			"bufferView":18,
			"componentType":5126,
			"count":749,
			"max":[
				0.47099998593330383,
				-1.9535000324249268,
				-0.24140000343322754
			],
			"min":[
				-0.47110000252723694,
				-2.10479998588562,
				-0.8486999869346619
			],
			"type":"VEC3"
		},
		{
			"bufferView":19,
			"componentType":5126,
			"count":749,
			"type":"VEC3"
		},
		{
			"bufferView":20,
			"componentType":5123,
			"count":2049,
			"type":"SCALAR"
		},
		{
			"bufferView":21,
			"componentType":5126,
			"count":220,
			"max":[
				0.7434999942779541,
				-1.5128999948501587,
				-0.7358999848365784
			],
			"min":[
				-0.7434999942779541,
				-2.03410005569458,
				-0.9466000199317932
			],
			"type":"VEC3"
		},
		{
			"bufferView":22,
			"componentType":5126,
			"count":220,
			"type":"VEC3"
		},
		{
			"bufferView":23,
			"componentType":5123,
			"count":1068,
			"type":"SCALAR"
		},
		{
			"bufferView":24,
			"componentType":5126,
			"count":382,
			"max":[
				0.8646000027656555,
				2.0604000091552734,
				-0.3061999976634979
			],
			"min":[
				-0.8646000027656555,
				-0.7197999954223633,
				-0.8295000195503235
			],
			"type":"VEC3"
		},
		{
			"bufferView":25,
			"componentType":5126,
			"count":382,
			"type":"VEC3"
		},
		{
			"bufferView":26,
			"componentType":5123,
			"count":1452,
			"type":"SCALAR"
		},
		{
			"bufferView":27,
			"componentType":5126,
			"count":103,
			"max":[
				0.1138225644826889,
				0.29774826765060425,
				0.2954474985599518
			],
			"min":[
				-0.10757739841938019,
				-0.29385167360305786,
				-0.296052485704422
			],
			"type":"VEC3"
		},
		{
			"bufferView":28,
			"componentType":5126,
			"count":103,
			"type":"VEC3"
		},
		{
			"bufferView":29,
			"componentType":5123,
			"count":258,
			"type":"SCALAR"
		},
		{
			"bufferView":30,
			"componentType":5126,
			"count":157,
			"max":[
				0.1488225907087326,
				0.3308482766151428,
				0.327147513628006
			],
			"min":[
				-0.13357742130756378,
				-0.32695168256759644,
				-0.32585248351097107
			],
			"type":"VEC3"
		},
		{
			"bufferView":31,
			"componentType":5126,
			"count":157,
			"type":"VEC3"
		},
		{
			"bufferView":32,
			"componentType":5123,
			"count":702,
			"type":"SCALAR"
		},
		{
			"bufferView":33,
			"componentType":5126,
			"count":738,
			"max":[
				0.1479225605726242,
				0.26634830236434937,
				0.267347514629364
			],
			"min":[
				0.07462255656719208,
				-0.26275163888931274,
				-0.2646525204181671
			],
			"type":"VEC3"
		},
		{
			"bufferView":34,
			"componentType":5126,
			"count":738,
			"type":"VEC3"
		},
		{
			"bufferView":35,
			"componentType":5123,
			"count":2160,
			"type":"SCALAR"
		},
		{
			"bufferView":36,
			"componentType":5126,
			"count":39,
			"max":[
				0.09292255342006683,
				0.17704826593399048,
				0.1723475158214569
			],
			"min":[
				0.04742257297039032,
				-0.20175164937973022,
				-0.1880524903535843
			],
			"type":"VEC3"
		},
		{
			"bufferView":37,
			"componentType":5126,
			"count":39,
			"type":"VEC3"
		},
		{
			"bufferView":38,
			"componentType":5123,
			"count":138,
			"type":"SCALAR"
		},
		{
			"bufferView":39,
			"componentType":5126,
			"count":103,
			"max":[
				0.11405067890882492,
				0.29435330629348755,
				0.29510581493377686
			],
			"min":[
				-0.10734934359788895,
				-0.29724663496017456,
				-0.2963941693305969
			],
			"type":"VEC3"
		},
		{
			"bufferView":40,
			"componentType":5126,
			"count":103,
			"type":"VEC3"
		},
		{
			"bufferView":41,
			"componentType":5126,
			"count":157,
			"max":[
				0.14905065298080444,
				0.3274533152580261,
				0.32680583000183105
			],
			"min":[
				-0.13334935903549194,
				-0.33034664392471313,
				-0.326194167137146
			],
			"type":"VEC3"
		},
		{
			"bufferView":42,
			"componentType":5126,
			"count":157,
			"type":"VEC3"
		},
		{
			"bufferView":43,
			"componentType":5126,
			"count":737,
			"max":[
				0.14815068244934082,
				0.26295334100723267,
				0.2670058310031891
			],
			"min":[
				0.0748506709933281,
				-0.266146719455719,
				-0.26499414443969727
			],
			"type":"VEC3"
		},
		{
			"bufferView":44,
			"componentType":5126,
			"count":737,
			"type":"VEC3"
		},
		{
			"bufferView":45,
			"componentType":5123,
			"count":2160,
			"type":"SCALAR"
		},
		{
			"bufferView":46,
			"componentType":5126,
			"count":39,
			"max":[
				0.08805065602064133,
				0.18325334787368774,
				0.17200584709644318
			],
			"min":[
				0.04525064677000046,
				-0.17424672842025757,
				-0.1704941838979721
			],
			"type":"VEC3"
		},
		{
			"bufferView":47,
			"componentType":5126,
			"count":39,
			"type":"VEC3"
		},
		{
			"bufferView":48,
			"componentType":5123,
			"count":138,
			"type":"SCALAR"
		},
		{
			"bufferView":49,
			"componentType":5126,
			"count":103,
			"max":[
				0.10735734552145004,
				0.2940567135810852,
				0.2952054738998413
			],
			"min":[
				-0.11404267698526382,
				-0.2975432276725769,
				-0.29629451036453247
			],
			"type":"VEC3"
		},
		{
			"bufferView":50,
			"componentType":5126,
			"count":103,
			"type":"VEC3"
		},
		{
			"bufferView":51,
			"componentType":5123,
			"count":258,
			"type":"SCALAR"
		},
		{
			"bufferView":52,
			"componentType":5126,
			"count":157,
			"max":[
				0.13335737586021423,
				0.3271567225456238,
				0.3269054889678955
			],
			"min":[
				-0.14904263615608215,
				-0.3306432366371155,
				-0.32609450817108154
			],
			"type":"VEC3"
		},
		{
			"bufferView":53,
			"componentType":5126,
			"count":157,
			"type":"VEC3"
		},
		{
			"bufferView":54,
			"componentType":5123,
			"count":702,
			"type":"SCALAR"
		},
		{
			"bufferView":55,
			"componentType":5126,
			"count":739,
			"max":[
				-0.074842669069767,
				0.2626567482948303,
				0.26710548996925354
			],
			"min":[
				-0.14814266562461853,
				-0.26644331216812134,
				-0.2648944854736328
			],
			"type":"VEC3"
		},
		{
			"bufferView":56,
			"componentType":5126,
			"count":739,
			"type":"VEC3"
		},
		{
			"bufferView":57,
			"componentType":5123,
			"count":2160,
			"type":"SCALAR"
		},
		{
			"bufferView":58,
			"componentType":5126,
			"count":39,
			"max":[
				-0.033742643892765045,
				0.1947566717863083,
				0.17210550606250763
			],
			"min":[
				-0.07924268394708633,
				-0.1745433360338211,
				-0.18169449269771576
			],
			"type":"VEC3"
		},
		{
			"bufferView":59,
			"componentType":5126,
			"count":39,
			"type":"VEC3"
		},
		{
			"bufferView":60,
			"componentType":5123,
			"count":138,
			"type":"SCALAR"
		},
		{
			"bufferView":61,
			"componentType":5126,
			"count":103,
			"max":[
				0.10758167505264282,
				0.2977491617202759,
				0.2954650819301605
			],
			"min":[
				-0.11381828784942627,
				-0.29385077953338623,
				-0.29603490233421326
			],
			"type":"VEC3"
		},
		{
			"bufferView":62,
			"componentType":5126,
			"count":103,
			"type":"VEC3"
		},
		{
			"bufferView":63,
			"componentType":5126,
			"count":157,
			"max":[
				0.13358169794082642,
				0.33084917068481445,
				0.3271650969982147
			],
			"min":[
				-0.14881831407546997,
				-0.3269507884979248,
				-0.32583490014076233
			],
			"type":"VEC3"
		},
		{
			"bufferView":64,
			"componentType":5126,
			"count":157,
			"type":"VEC3"
		},
		{
			"bufferView":65,
			"componentType":5126,
			"count":738,
			"max":[
				-0.07461827993392944,
				0.266349196434021,
				0.26736509799957275
			],
			"min":[
				-0.14791828393936157,
				-0.2627507448196411,
				-0.2646349370479584
			],
			"type":"VEC3"
		},
		{
			"bufferView":66,
			"componentType":5126,
			"count":738,
			"type":"VEC3"
		},
		{
			"bufferView":67,
			"componentType":5123,
			"count":2160,
			"type":"SCALAR"
		},
		{
			"bufferView":68,
			"componentType":5126,
			"count":39,
			"max":[
				-0.047418296337127686,
				0.1770491600036621,
				0.17236508429050446
			],
			"min":[
				-0.0929182767868042,
				-0.2017507553100586,
				-0.18923494219779968
			],
			"type":"VEC3"
		},
		{
			"bufferView":69,
			"componentType":5126,
			"count":39,
			"type":"VEC3"
		},
		{
			"bufferView":70,
			"componentType":5123,
			"count":138,
			"type":"SCALAR"
		}
	],
	"bufferViews":[
		{
			"buffer":0,
			"byteLength":142656,
			"byteOffset":0,
			"target":34962
		},
		{
			"buffer":0,
			"byteLength":142656,
			"byteOffset":142656,
			"target":34962
		},
		{
			"buffer":0,
			"byteLength":110442,
			"byteOffset":285312,
			"target":34963
		},
		{
			"buffer":0,
			"byteLength":1512,
			"byteOffset":395756,
			"target":34962
		},
		{
			"buffer":0,
			"byteLength":1512,
			"byteOffset":397268,
			"target":34962
		},
		{
			"buffer":0,
			"byteLength":1080,
			"byteOffset":398780,
			"target":34963
		},
		{
			"buffer":0,
			"byteLength":3012,
			"byteOffset":399860,
			"target":34962
		},
		{
			"buffer":0,
			"byteLength":3012,
			"byteOffset":402872,
			"target":34962
		},
		{
			"buffer":0,
			"byteLength":2028,
			"byteOffset":405884,
			"target":34963
		},
		{
			"buffer":0,
			"byteLength":384,
			"byteOffset":407912,
			"target":34962
		},
		{
			"buffer":0,
			"byteLength":384,
			"byteOffset":408296,
			"target":34962
		},
		{
			"buffer":0,
			"byteLength":228,
			"byteOffset":408680,
			"target":34963
		},
		{
			"buffer":0,
			"byteLength":26124,
			"byteOffset":408908,
			"target":34962
		},
		{
			"buffer":0,
			"byteLength":26124,
			"byteOffset":435032,
			"target":34962
		},
		{
			"buffer":0,
			"byteLength":12456,
			"byteOffset":461156,
			"target":34963
		},
		{
			"buffer":0,
			"byteLength":1488,
			"byteOffset":473612,
			"target":34962
		},
		{
			"buffer":0,
			"byteLength":1488,
			"byteOffset":475100,
			"target":34962
		},
		{
			"buffer":0,
			"byteLength":708,
			"byteOffset":476588,
			"target":34963
		},
		{
			"buffer":0,
			"byteLength":8988,
			"byteOffset":477296,
			"target":34962
		},
		{
			"buffer":0,
			"byteLength":8988,
			"byteOffset":486284,
			"target":34962
		},
		{
			"buffer":0,
			"byteLength":4098,
			"byteOffset":495272,
			"target":34963
		},
		{
			"buffer":0,
			"byteLength":2640,
			"byteOffset":499372,
			"target":34962
		},
		{
			"buffer":0,
			"byteLength":2640,
			"byteOffset":502012,
			"target":34962
		},
		{
			"buffer":0,
			"byteLength":2136,
			"byteOffset":504652,
			"target":34963
		},
		{
			"buffer":0,
			"byteLength":4584,
			"byteOffset":506788,
			"target":34962
		},
		{
			"buffer":0,
			"byteLength":4584,
			"byteOffset":511372,
			"target":34962
		},
		{
			"buffer":0,
			"byteLength":2904,
			"byteOffset":515956,
			"target":34963
		},
		{
			"buffer":0,
			"byteLength":1236,
			"byteOffset":518860,
			"target":34962
		},
		{
			"buffer":0,
			"byteLength":1236,
			"byteOffset":520096,
			"target":34962
		},
		{
			"buffer":0,
			"byteLength":516,
			"byteOffset":521332,
			"target":34963
		},
		{
			"buffer":0,
			"byteLength":1884,
			"byteOffset":521848,
			"target":34962
		},
		{
			"buffer":0,
			"byteLength":1884,
			"byteOffset":523732,
			"target":34962
		},
		{
			"buffer":0,
			"byteLength":1404,
			"byteOffset":525616,
			"target":34963
		},
		{
			"buffer":0,
			"byteLength":8856,
			"byteOffset":527020,
			"target":34962
		},
		{
			"buffer":0,
			"byteLength":8856,
			"byteOffset":535876,
			"target":34962
		},
		{
			"buffer":0,
			"byteLength":4320,
			"byteOffset":544732,
			"target":34963
		},
		{
			"buffer":0,
			"byteLength":468,
			"byteOffset":549052,
			"target":34962
		},
		{
			"buffer":0,
			"byteLength":468,
			"byteOffset":549520,
			"target":34962
		},
		{
			"buffer":0,
			"byteLength":276,
			"byteOffset":549988,
			"target":34963
		},
		{
			"buffer":0,
			"byteLength":1236,
			"byteOffset":550264,
			"target":34962
		},
		{
			"buffer":0,
			"byteLength":1236,
			"byteOffset":551500,
			"target":34962
		},
		{
			"buffer":0,
			"byteLength":1884,
			"byteOffset":552736,
			"target":34962
		},
		{
			"buffer":0,
			"byteLength":1884,
			"byteOffset":554620,
			"target":34962
		},
		{
			"buffer":0,
			"byteLength":8844,
			"byteOffset":556504,
			"target":34962
		},
		{
			"buffer":0,
			"byteLength":8844,
			"byteOffset":565348,
			"target":34962
		},
		{
			"buffer":0,
			"byteLength":4320,
			"byteOffset":574192,
			"target":34963
		},
		{
			"buffer":0,
			"byteLength":468,
			"byteOffset":578512,
			"target":34962
		},
		{
			"buffer":0,
			"byteLength":468,
			"byteOffset":578980,
			"target":34962
		},
		{
			"buffer":0,
			"byteLength":276,
			"byteOffset":579448,
			"target":34963
		},
		{
			"buffer":0,
			"byteLength":1236,
			"byteOffset":579724,
			"target":34962
		},
		{
			"buffer":0,
			"byteLength":1236,
			"byteOffset":580960,
			"target":34962
		},
		{
			"buffer":0,
			"byteLength":516,
			"byteOffset":582196,
			"target":34963
		},
		{
			"buffer":0,
			"byteLength":1884,
			"byteOffset":582712,
			"target":34962
		},
		{
			"buffer":0,
			"byteLength":1884,
			"byteOffset":584596,
			"target":34962
		},
		{
			"buffer":0,
			"byteLength":1404,
			"byteOffset":586480,
			"target":34963
		},
		{
			"buffer":0,
			"byteLength":8868,
			"byteOffset":587884,
			"target":34962
		},
		{
			"buffer":0,
			"byteLength":8868,
			"byteOffset":596752,
			"target":34962
		},
		{
			"buffer":0,
			"byteLength":4320,
			"byteOffset":605620,
			"target":34963
		},
		{
			"buffer":0,
			"byteLength":468,
			"byteOffset":609940,
			"target":34962
		},
		{
			"buffer":0,
			"byteLength":468,
			"byteOffset":610408,
			"target":34962
		},
		{
			"buffer":0,
			"byteLength":276,
			"byteOffset":610876,
			"target":34963
		},
		{
			"buffer":0,
			"byteLength":1236,
			"byteOffset":611152,
			"target":34962
		},
		{
			"buffer":0,
			"byteLength":1236,
			"byteOffset":612388,
			"target":34962
		},
		{
			"buffer":0,
			"byteLength":1884,
			"byteOffset":613624,
			"target":34962
		},
		{
			"buffer":0,
			"byteLength":1884,
			"byteOffset":615508,
			"target":34962
		},
		{
			"buffer":0,
			"byteLength":8856,
			"byteOffset":617392,
			"target":34962
		},
		{
			"buffer":0,
			"byteLength":8856,
			"byteOffset":626248,
			"target":34962
		},
		{
			"buffer":0,
			"byteLength":4320,
			"byteOffset":635104,
			"target":34963
		},
		{
			"buffer":0,
			"byteLength":468,
			"byteOffset":639424,
			"target":34962
		},
		{
			"buffer":0,
			"byteLength":468,
			"byteOffset":639892,
			"target":34962
		},
		{
			"buffer":0,
			"byteLength":276,
			"byteOffset":640360,
			"target":34963
		}
	],
	"buffers":[
		{
			"byteLength":640636,
			"uri":"data:application/octet-stream;base64,"
		}
	]
}
